HIERARCHY
ROOT Hips
{
	OFFSET -3.958830 18.904000 13.208200
	CHANNELS 6 Xposition Yposition Zposition Zrotation Yrotation Xrotation 
	JOINT LHipJoint
	{
		OFFSET 0.000000 0.000000 0.000000
		CHANNELS 3 Zrotation Yrotation Xrotation
		JOINT LeftUpLeg
		{
			OFFSET 1.800000 -1.400000 0.085000
			CHANNELS 3 Zrotation Yrotation Xrotation
			JOINT LeftLeg
			{
				OFFSET 2.215000 -6.000000 0.000000
				CHANNELS 3 Zrotation Yrotation Xrotation
				JOINT LeftFoot
				{
					OFFSET 2.500000 -6.900000 0.000000
					CHANNELS 3 Zrotation Yrotation Xrotation
					JOINT LeftToeBase
					{
						OFFSET 0.200000 -0.500000 1.950000
						CHANNELS 3 Zrotation Yrotation Xrotation
						End Site
						{
							OFFSET 0.000000 0.000000 0.000000
						}
					}
				}
			}
		}
	}
	JOINT RHipJoint
	{
		OFFSET 0.000000 0.000000 0.000000
		CHANNELS 3 Zrotation Yrotation Xrotation
		JOINT RightUpLeg
		{
			OFFSET -1.800000 -1.400000 0.085000
			CHANNELS 3 Zrotation Yrotation Xrotation
			JOINT RightLeg
			{
				OFFSET -2.215000 -6.000000 0.000000
				CHANNELS 3 Zrotation Yrotation Xrotation
				JOINT RightFoot
				{
					OFFSET -2.500000 -6.900000 0.000000
					CHANNELS 3 Zrotation Yrotation Xrotation
					JOINT RightToeBase
					{
						OFFSET -0.200000 -0.500000 1.950000
						CHANNELS 3 Zrotation Yrotation Xrotation
						End Site
						{
							OFFSET 0.000000 0.000000 0.000000
						}
					}
				}
			}
		}
	}
	JOINT LowerBack
	{
		OFFSET 0.000000 0.000000 0.000000
		CHANNELS 3 Zrotation Yrotation Xrotation
		JOINT Spine
		{
			OFFSET -0.087000 1.940000 -0.288900
			CHANNELS 3 Zrotation Yrotation Xrotation
			JOINT Spine1
			{
				OFFSET 0.000000 1.950000 0.060000
				CHANNELS 3 Zrotation Yrotation Xrotation
				JOINT Neck
				{
					OFFSET 0.000000 0.000000 0.000000
					CHANNELS 3 Zrotation Yrotation Xrotation
					JOINT Neck1
					{
						OFFSET 0.000000 1.600000 0.340000
						CHANNELS 3 Zrotation Yrotation Xrotation
						JOINT Head
						{
							OFFSET 0.000000 1.667000 -0.240000
							CHANNELS 3 Zrotation Yrotation Xrotation
							End Site
							{
								OFFSET 0.000000 0.000000 0.000000
							}
						}
					}
				}
				JOINT LeftShoulder
				{
					OFFSET 0.000000 0.000000 0.000000
					CHANNELS 3 Zrotation Yrotation Xrotation
					JOINT LeftArm
					{
						OFFSET 2.700000 1.550000 -0.730000
						CHANNELS 3 Zrotation Yrotation Xrotation
						JOINT LeftForeArm
						{
							OFFSET 5.450000 0.000000 0.000000
							CHANNELS 3 Zrotation Yrotation Xrotation
							JOINT LeftHand
							{
								OFFSET 3.450000 0.000000 0.000000
								CHANNELS 3 Zrotation Yrotation Xrotation
								JOINT LeftHandIndex1
								{
									OFFSET 0.750000 0.000000 0.000000
									CHANNELS 3 Zrotation Yrotation Xrotation
									End Site
									{
										OFFSET 0.000000 0.000000 0.000000
									}
								}
							}
						}
					}
				}
				JOINT RightShoulder
				{
					OFFSET 0.000000 0.000000 0.000000
					CHANNELS 3 Zrotation Yrotation Xrotation
					JOINT RightArm
					{
						OFFSET -2.700000 1.550000 -0.730000
						CHANNELS 3 Zrotation Yrotation Xrotation
						JOINT RightForeArm
						{
							OFFSET -5.450000 0.000000 0.000000
							CHANNELS 3 Zrotation Yrotation Xrotation
							JOINT RightHand
							{
								OFFSET -3.450000 0.000000 0.000000
								CHANNELS 3 Zrotation Yrotation Xrotation
								JOINT RightHandIndex1
								{
									OFFSET -0.750000 0.000000 0.000000
									CHANNELS 3 Zrotation Yrotation Xrotation
									End Site
									{
										OFFSET 0.000000 0.000000 0.000000
									}
								}
							}
						}
					}
				}
			}
		}
	}
}
MOTION
Frames: 10
Frame Time: 0.016667
-0.242570 16.950760 -1.565310 -0.937896 14.957779 2.206665 -14.635264 12.703543 2.453622 10.688142 -1.623003 -19.242823 -5.516575 7.214849 21.477574 -0.491104 5.226032 3.255848 -0.034590 -0.541840 -0.461760 18.690123 -12.156343 2.180536 -22.035257 1.269934 -16.238843 5.932308 -7.913515 23.091344 0.192336 -5.411517 2.950392 -0.074400 1.221230 0.195890 -5.321618 1.293880 -6.569236 22.784956 -1.145978 0.100096 -24.644732 0.926673 9.160908 6.453311 -6.510380 -9.585519 -10.603162 1.593720 25.612567 -0.954680 -7.621100 10.972300 -16.746518 -8.766759 3.429239 -48.235883 -7.620358 0.422260 11.356601 -5.508732 -1.328169 -4.530742 2.971510 -0.012140 0.804960 -0.916400 0.470470 3.127430 15.072742 7.496657 72.017618 25.724172 4.329864 20.896823 51.219949 3.702570 1.659709 -2.053752 -0.463370 0.381570 0.278810 0.005870 
-0.236770 16.960970 -1.546190 -1.072050 15.277480 2.175614 -14.618654 12.697184 2.441225 10.951642 -1.470115 -18.993661 -5.531442 7.136113 20.862398 -0.466342 5.125108 3.295708 -0.043370 -0.530910 -0.481980 18.692203 -12.229794 2.180620 -21.441579 1.291484 -15.717180 5.584175 -7.656327 22.483788 0.200849 -5.322735 3.017232 -0.083300 1.218300 0.181540 -5.364160 1.458059 -6.570634 23.103086 -1.010323 0.031692 -24.280249 0.889240 9.021544 6.459071 -6.367275 -9.551256 -10.215395 1.916566 25.690158 -0.864980 -7.252670 11.342220 -16.203902 -7.674199 3.259586 -49.968838 -6.587563 -0.162763 12.467316 -5.822800 -1.333488 -4.519221 2.969863 -0.026050 0.803420 -0.912810 0.481980 2.571299 14.101001 7.681160 71.770392 24.796060 4.099125 25.458343 54.316055 6.146768 1.668233 -2.100533 -0.452940 0.378880 0.265610 0.019290 
-0.217750 16.977240 -1.515230 -1.226714 15.670411 2.320854 -14.595725 12.666467 2.450481 11.497457 -1.252509 -18.530923 -6.009485 7.139193 19.787563 -0.471467 5.055750 3.330566 -0.030180 -0.520550 -0.433610 18.694545 -12.352295 2.166653 -20.135911 1.333683 -15.071521 4.245232 -6.915753 21.094780 0.206458 -5.062600 3.139711 -0.084450 1.187100 0.178760 -5.419084 1.763979 -6.570099 23.745679 -0.752419 -0.201938 -23.754201 0.787946 8.805091 6.695384 -5.779318 -9.305976 -8.906939 1.866193 25.504745 -2.019920 -6.106770 11.371810 -15.416844 -5.400951 2.735192 -52.143303 -4.723841 -1.066542 13.746493 -5.803106 -1.271810 -4.518997 2.929581 -0.002330 0.798780 -0.883130 0.485470 1.269939 11.679236 7.929347 70.930800 23.097923 4.792294 37.759104 62.231455 14.284927 1.680037 -2.206660 -0.460360 0.374910 0.231220 -0.002500 
-0.175460 16.993440 -1.504150 -1.180212 16.907727 2.711441 -14.589184 12.581892 2.469866 11.394604 -1.275056 -18.582469 -6.181495 6.940998 18.856437 -0.522503 4.905771 3.339088 -0.001360 -0.505590 -0.337480 18.688180 -12.442360 2.198793 -19.695895 1.321924 -14.496420 3.806230 -6.608715 19.744179 0.185470 -4.920159 3.169024 -0.089540 1.094290 0.212840 -5.462450 2.095794 -6.604043 23.633793 -0.416651 -0.242973 -22.063376 0.715400 8.676114 6.814537 -4.467140 -8.956422 -6.395250 0.868452 25.260831 -3.785240 -5.077090 10.109390 -14.369452 -3.088922 2.137601 -55.231826 -2.822849 -2.295197 15.999001 -5.836819 -1.289195 -4.542372 2.901630 0.041150 0.776860 -0.822260 0.432080 -0.060770 8.645578 8.175714 69.709000 20.183284 6.366910 58.467556 70.845604 30.124322 1.836528 -2.154335 -0.434840 0.328540 0.224430 -0.055450 
-0.126510 17.012720 -1.506990 -1.697808 18.011844 2.841752 -14.578423 12.459668 2.499023 11.931341 -1.213744 -18.640301 -6.728982 6.864257 17.770165 -0.581892 4.787100 3.331443 0.057130 -0.454850 -0.251470 18.692343 -12.509632 2.249800 -18.922978 1.362574 -14.074015 3.575855 -6.288599 18.279165 0.144754 -4.730706 3.231978 -0.074820 0.981550 0.205340 -5.519364 2.472515 -6.656502 23.919040 0.143647 0.074070 -19.623691 0.849850 8.465799 6.504399 -3.143806 -8.715367 -4.061929 -0.662933 25.783149 -4.340720 -5.557550 7.787020 -13.521442 -1.082147 1.693165 -58.276197 -0.653629 -3.999312 18.921937 -7.109021 -1.541625 -4.479603 2.849337 0.135520 0.701220 -0.741070 0.405850 -0.395512 5.781243 8.370133 67.972288 17.035445 6.614782 92.095211 75.199252 55.586228 2.797720 -0.589686 -0.425590 0.322610 0.198880 -0.103010 
-0.090070 17.028810 -1.512750 -2.072018 19.241246 2.994750 -14.542454 12.325775 2.543522 12.298457 -1.208734 -19.190909 -7.016418 6.797149 17.317909 -0.570537 4.616255 3.322745 0.178860 -0.318950 -0.126510 18.717501 -12.611044 2.306629 -18.600670 1.410084 -13.959200 3.731376 -6.259522 17.978986 0.062369 -4.663748 3.215375 -0.042470 0.819360 0.227490 -5.662843 2.893551 -6.769011 23.538193 0.815400 0.730949 -17.035024 1.206454 8.641464 6.194566 -1.266195 -8.865315 -0.824226 -2.463776 25.996538 -4.506500 -5.919180 5.226160 -12.691725 0.814717 1.376043 -59.557478 2.157650 -6.528631 21.145985 -11.135631 -2.230481 -4.344102 2.894186 0.193370 0.601610 -0.619810 0.401180 -0.546817 2.721907 9.149070 66.895046 14.307266 1.349103 122.784477 69.110472 86.242815 1.970095 -1.000379 -0.343850 0.255460 0.112310 -0.125490 
-0.048270 17.038060 -1.525340 -2.666930 19.976119 3.106947 -14.520535 12.221628 2.588345 12.677153 -1.165010 -19.700377 -7.203855 6.772673 17.087292 -0.571119 4.500883 3.302706 0.245110 -0.255410 -0.039930 18.727320 -12.712687 2.351433 -18.055250 1.502996 -14.133541 3.555387 -6.171654 17.947389 0.005716 -4.566704 3.225891 -0.046720 0.685310 0.243120 -5.744482 3.273315 -6.850687 23.105911 1.560651 1.665507 -14.437782 1.748109 8.707004 5.837220 0.583661 -9.308276 2.372382 -4.171210 26.002203 -4.712940 -6.022050 3.055580 -11.614648 2.087119 1.607764 -60.632758 6.007752 -9.938401 23.326901 -17.596001 -3.446856 -4.203906 2.925048 0.270090 0.516950 -0.520880 0.382980 -0.897607 0.405517 9.796355 66.314474 10.639339 0.867149 145.822197 65.015388 112.123524 1.562197 -1.774126 -0.294300 0.198500 0.064370 -0.159050 
0.003040 17.043980 -1.538510 -2.952437 20.458597 3.289639 -14.493445 12.113747 2.594026 12.510067 -1.164899 -20.037656 -7.069024 6.719125 17.253023 -0.597045 4.408365 3.299454 0.271240 -0.255900 0.016420 18.739930 -12.855605 2.408813 -18.009771 1.583979 -14.354955 3.327346 -6.082576 17.829108 -0.020661 -4.515468 3.217880 -0.061500 0.595850 0.247140 -5.832117 3.752784 -6.898471 22.252002 2.359331 2.641306 -12.598966 2.368893 8.581179 5.581403 2.567075 -9.642547 5.947714 -5.566549 25.691926 -4.597740 -6.032930 2.207950 -10.614797 3.750533 1.926844 -60.291250 10.585849 -13.441240 25.515141 -26.536498 -5.072549 -4.067185 2.978472 0.339830 0.458490 -0.469960 0.362950 -1.431641 -2.285967 10.244421 66.420119 7.738370 1.319624 160.837397 60.955923 129.932949 1.471661 -2.085089 -0.287740 0.149980 0.041810 -0.200540 
0.048700 17.041600 -1.551410 -3.027558 21.126849 3.751178 -14.513055 11.995031 2.619746 12.308639 -1.242318 -20.725274 -7.195871 6.716019 17.348576 -0.623091 4.332718 3.276948 0.340780 -0.183140 0.094980 18.728621 -12.901144 2.432907 -18.196904 1.596473 -14.563908 3.395507 -6.025372 17.540543 -0.043616 -4.491507 3.192187 -0.026200 0.507160 0.256900 -5.803724 4.039769 -6.880714 20.266793 3.099677 3.576000 -10.022251 2.767186 7.984676 5.314244 4.173571 -9.228979 8.908890 -6.950027 24.493726 -4.724270 -5.934500 0.749310 -9.749809 6.348184 1.336469 -58.792894 13.940891 -15.563947 27.614207 -32.264855 -6.147065 -3.995451 3.049247 0.361000 0.420540 -0.426370 0.344120 -1.666433 -5.816713 10.062188 66.048944 4.748421 1.750015 170.133045 56.813892 142.124622 1.435041 -2.290994 -0.255670 0.103450 0.003680 -0.231090 
0.112280 17.045330 -1.566520 -3.592835 21.664703 4.119160 -14.524594 11.916207 2.696958 12.445140 -1.321649 -21.463990 -7.696513 6.803866 17.223981 -0.640987 4.357406 3.271352 0.356140 -0.190880 0.134470 18.722932 -12.911002 2.429363 -17.839370 1.651001 -14.954106 3.112359 -5.895534 17.634751 -0.052442 -4.416941 3.218662 -0.030350 0.491210 0.249210 -5.795545 4.162710 -6.900501 19.487734 3.543308 4.721540 -8.413732 3.185168 6.758611 4.945784 5.080983 -8.666313 10.583021 -7.948568 23.770194 -4.427780 -6.017810 0.127140 -8.763067 9.060283 0.439034 -56.920624 16.827951 -17.081979 30.148039 -36.438927 -7.211218 -3.965380 3.050852 0.407820 0.399850 -0.407490 0.348290 -2.016099 -8.920199 10.076705 65.440214 1.041242 0.687916 176.159037 53.776394 151.299867 1.418771 -2.381781 -0.276300 0.116200 -0.014090 -0.253690 
